<?xml version="1.0" encoding="UTF-8"?>
<svg id="_レイヤー_2" data-name="レイヤー 2" xmlns="http://www.w3.org/2000/svg" viewBox="0 0 73.68 68.7">
  <defs>
    <style>
      .cls-1 {
        fill: #fff;
      }
    </style>
  </defs>
  <g id="_固定" data-name="固定">
    <path class="cls-1" d="M21.58.24c-3.92.17-6.6.76-8.94,1.61-2.42.88-4.48,2.06-6.52,3.97-2.04,1.91-3.3,3.83-4.24,6.09-.91,2.19-1.52,4.68-1.7,8.34C.02,23.92-.01,25.09,0,34.42c.02,9.33.06,10.5.25,14.16.19,3.65.81,6.15,1.73,8.33.95,2.26,2.21,4.17,4.26,6.08,2.05,1.91,4.11,3.08,6.53,3.95,2.34.84,5.02,1.42,8.94,1.58,3.93.16,5.18.2,15.19.18,10.01-.02,11.26-.06,15.19-.23,3.92-.17,6.59-.76,8.94-1.61,2.42-.88,4.48-2.06,6.52-3.97,2.04-1.91,3.3-3.83,4.24-6.09.91-2.18,1.52-4.68,1.69-8.34.17-3.67.21-4.84.19-14.16-.02-9.33-.06-10.5-.25-14.16-.19-3.66-.81-6.15-1.73-8.34-.95-2.26-2.21-4.17-4.26-6.08-2.05-1.9-4.11-3.08-6.53-3.95-2.34-.85-5.02-1.42-8.94-1.58C48.03.02,46.78-.01,36.77,0c-10,.02-11.26.06-15.19.23M22.01,62.34c-3.59-.15-5.54-.7-6.84-1.17-1.72-.62-2.95-1.37-4.24-2.56-1.29-1.2-2.09-2.34-2.76-3.94-.5-1.21-1.11-3.03-1.28-6.38-.18-3.62-.22-4.71-.24-13.88-.02-9.17.02-10.26.19-13.88.15-3.35.75-5.17,1.25-6.38.67-1.61,1.46-2.75,2.75-3.96,1.29-1.21,2.51-1.95,4.23-2.58,1.3-.47,3.25-1.04,6.84-1.19,3.89-.17,5.05-.21,14.88-.23,9.84-.02,11,.01,14.89.17,3.59.15,5.54.7,6.84,1.17,1.72.62,2.95,1.36,4.24,2.56,1.29,1.2,2.09,2.34,2.76,3.95.51,1.21,1.11,3.03,1.28,6.37.18,3.62.23,4.71.24,13.88.02,9.17-.02,10.26-.19,13.88-.16,3.35-.75,5.17-1.25,6.38-.67,1.6-1.46,2.75-2.75,3.95-1.29,1.2-2.51,1.95-4.23,2.58-1.3.47-3.25,1.04-6.83,1.19-3.89.17-5.05.21-14.89.23-9.83.02-11-.02-14.89-.17M52.05,15.99c0,2.28,1.99,4.12,4.43,4.11,2.44,0,4.42-1.85,4.41-4.13,0-2.28-1.99-4.12-4.43-4.11-2.44,0-4.42,1.85-4.41,4.13M17.92,34.39c.02,9.74,8.51,17.62,18.95,17.6,10.45-.02,18.9-7.93,18.88-17.67-.02-9.74-8.51-17.62-18.96-17.6-10.45.02-18.9,7.93-18.88,17.67M24.56,34.37c-.01-6.32,5.48-11.46,12.26-11.47,6.78-.01,12.29,5.1,12.3,11.43.01,6.32-5.48,11.46-12.26,11.47-6.78.01-12.29-5.1-12.3-11.43"/>
  </g>
</svg>