<?xml version="1.0" encoding="UTF-8"?>
<svg id="_レイヤー_2" data-name="レイヤー 2" xmlns="http://www.w3.org/2000/svg" viewBox="0 0 392.39 392.39">
  <defs>
    <style>
      .cls-1 {
        fill: none;
        stroke: #1b1464;
        stroke-width: 10px;
      }

      .cls-1, .cls-2, .cls-3 {
        stroke-miterlimit: 10;
      }

      .cls-4 {
        letter-spacing: 0em;
      }

      .cls-5 {
        letter-spacing: -.02em;
      }

      .cls-6 {
        letter-spacing: -.01em;
      }

      .cls-2 {
        fill: #1b1464;
        font-family: Momochidori-CondHeavy-90ms-RKSJ-H, Momochidori;
        font-size: 66.62px;
        font-weight: 800;
        stroke-width: .5px;
      }

      .cls-2, .cls-3 {
        stroke: #97cdf3;
      }

      .cls-3 {
        fill: #1a1460;
      }
    </style>
  </defs>
  <g id="_固定" data-name="固定">
    <g>
      <circle class="cls-1" cx="196.2" cy="196.2" r="191.2"/>
      <text class="cls-2" transform="translate(55.76 251.91) scale(1.09 1)"><tspan class="cls-5" x="0" y="0">K</tspan><tspan x="39.37" y="0">o</tspan><tspan class="cls-6" x="77.35" y="0">k</tspan><tspan x="113.53" y="0">o</tspan><tspan class="cls-4" x="151.5" y="0">k</tspan><tspan x="188.88" y="0">an</tspan></text>
      <text class="cls-2" transform="translate(86.76 324.22) scale(1.09 1)"><tspan x="0" y="0">Design</tspan></text>
      <path class="cls-3" d="M294.36,98.16v4.45c-1.68-.28-2.26.54-3.36,1.45-2.4,1.99-13.28,14.65-15.18,13.77-1.07-.49-2.51-3.18-3.71-3.74-3.74-1.74-9.8,7.29-13.39,8.85.17,2.91-4.08,8.78-4.25,10.55-.23,2.37,2.65,3.77.4,9.33-1.88,4.67-6.81,5.89-7.6,7.22-1.67,2.81.45,6.1-4.4,11.17-8.23,8.59-8.74,8.56-18.94,13.69-1.02.51-1.14,1.97-2.04,2.6-4.63,3.28-7.98,4.43-13.84,3.62-2.52-.35-6.1-2.91-7.49-2.87-3.71.11-6.46,7.62-15.34,4.19-5.5-2.13-5.12-7.26-6.65-8.54-.42-.34-6.34-.73-9.15-3.09-2.95-2.48-3.78-7.8-4.11-8.12-.23-.22-2.79.07-3.87-.21-3.64-.93-6.82-4.72-8.29-8.04-.55-1.24-.17-3-.52-3.55-.2-.31-4.9-1.55-6.57-3.44-.66-.75-3.5-5.85-3.66-6.71-.8-4.16,1.2-5.58,1.46-8.2.08-.77-2.16-7.46-2.66-8.4-.65-1.22-11.02-10.46-11.81-10.46-1.84,0-4.45,4.98-6.32,4.13-2.48-1.13-11.1-11.84-14.42-14.52-1.1-.89-1.67-1.74-3.36-1.45v-3.71l46.44-45.92,16.62,15.85c1.35,7.4,6.72,9.63,13.71,9.34,12.87-.53,24.97.06,37.77.01,4.62-.02,11.23-2.44,10.69-7.85l18.13-17.35,45.7,45.92ZM183.88,87.04c-3.24-.07-6.3.32-9.5-.51-3.58-.93-10.01-7.38-12.21-6.81-3.11.81-22.49,23.34-26.46,26.96,0,.89,11.97,9.52,13.35,11.84,1.38,2.31.72,5.12,2.59,7.06,6.21-3.74,12.27-5.95,18.5-.72,4.14,3.48,3.08,7.36,4.84,9.25,1.13,1.21,4.98,1.99,6.68,3.91,1.76,1.97,2.07,5.78,2.3,6.02.94.97,8.19.77,11.44,6.72.92,1.68,1.42,5,2.21,5.95.91,1.11,5.38,2.44,7.04,4.29,3.36,3.75,1.35,8.01,2.55,9.84s8.19,2.32,8.55-1.13c-2.81-1.33-8.11-6.7-3.71-8.91,4.14-2.08,6.45,3.5,9.28,4.07,3.1.62,5.97.12,7.76-2.58-.01-.91-16.47-7.21-10.06-12.3,3.47-2.76,5.86,2.06,8.48,3.52,2.24,1.25,7.98,3.17,9.63.51,3.4-5.5-2.24-5.68-5.32-7.79-2.58-1.76-8.15-5.69-5.37-8.83,4.42-4.99,7.65,3.91,12.63,4.54,2.27.28,7.95-.4,6.97-3.23-.41-1.18-7.2-6.9-8.78-8.3-2.23-1.99-17.03-14.95-18.2-15.18-4.82-.92-21.13,4.3-26.61,5.98-5.98,1.83-9.97,5.66-16.9,3.43-3.53-1.14-6.82-5.01-7.68-8.63-2.75-11.68,9.43-21.03,15.99-28.96ZM263.95,107.04c.45-.63-4.27-6.05-5.17-7.05-6.09-6.81-13.51-12.83-19.63-19.67-3.41-2.02-7.74,3.59-11.14,5.25-9.08,4.42-18.72-3-30.55,2.82-5.56,2.73-15.23,13.16-18.65,18.43-2.45,3.77-4.11,10.02,2.41,9.11,4.61-.64,15.17-5.62,21.03-7.17,3.42-.9,15.58-4.14,18.22-3.7.53.09,3.82,2.21,4.56,2.75,6.38,4.7,13.29,13.28,19.68,17.39,6.02,3.87,3.15-3.6,5.38-6.79,1.4-2,9.42-8.15,12.03-10.62.47-.45,1.18-.68,1.83-.73ZM159.6,135.05c1.41,1.22,4.17,1.63,4.74-.57,1.04-3.93-8.21-2.45-4.74.57ZM154.97,140.41c-.65-1.28-1.18-3.27-2.96-2.95-1.04,2.48,1.24,4.2,2.96,2.95ZM168.79,144.58c-2.04,1.17-11.38,5.92-5.65,8.84,1.98,1.01,16.32-5.89,10.67-9.99-3.03-2.2-3.82.46-5.02,1.14ZM182.94,153.89c-2.16.46-8.95,5-8.73,7.61.54,6.42,13.16-1.75,13.42-4.44s-2.3-3.68-4.68-3.17Z"/>
    </g>
  </g>
</svg>