<?xml version="1.0" encoding="UTF-8"?>
<svg id="_レイヤー_2" data-name="レイヤー 2" xmlns="http://www.w3.org/2000/svg" viewBox="0 0 66.17 61.7">
  <defs>
    <style>
      .cls-1 {
        fill: #fff;
      }
    </style>
  </defs>
  <g id="_固定" data-name="固定">
    <path class="cls-1" d="M19.38.21c-3.52.15-5.92.68-8.03,1.45-2.17.79-4.02,1.85-5.85,3.57-1.84,1.72-2.96,3.44-3.81,5.47-.81,1.96-1.37,4.21-1.52,7.49C.02,21.48-.01,22.53,0,30.91c.02,8.38.06,9.43.23,12.72.17,3.28.73,5.52,1.55,7.48.85,2.03,1.98,3.75,3.83,5.46,1.84,1.71,3.69,2.76,5.87,3.55,2.1.76,4.51,1.28,8.03,1.42,3.53.14,4.66.18,13.64.16,8.99-.02,10.11-.05,13.64-.21,3.52-.16,5.92-.68,8.03-1.45,2.17-.79,4.02-1.85,5.85-3.57,1.83-1.72,2.96-3.44,3.8-5.47.81-1.96,1.37-4.21,1.52-7.49.15-3.29.19-4.34.17-12.72-.02-8.38-.06-9.43-.23-12.72-.17-3.28-.73-5.52-1.55-7.49-.85-2.03-1.98-3.75-3.83-5.46-1.84-1.71-3.69-2.76-5.87-3.55-2.11-.76-4.51-1.28-8.03-1.42C43.13.02,42-.01,33.02,0c-8.98.02-10.11.05-13.64.21M19.77,55.98c-3.23-.13-4.98-.63-6.14-1.05-1.55-.56-2.65-1.23-3.81-2.3-1.16-1.08-1.88-2.1-2.48-3.54-.45-1.09-1-2.72-1.15-5.73-.16-3.25-.2-4.23-.22-12.46-.02-8.23.01-9.21.17-12.46.14-3.01.68-4.64,1.13-5.73.6-1.44,1.31-2.47,2.47-3.55,1.16-1.08,2.26-1.75,3.8-2.31,1.17-.42,2.92-.93,6.14-1.07,3.49-.15,4.53-.19,13.37-.2,8.83-.02,9.88.01,13.37.16,3.22.13,4.98.63,6.14,1.05,1.55.56,2.65,1.22,3.81,2.3,1.16,1.08,1.88,2.1,2.48,3.54.46,1.08,1,2.72,1.15,5.72.17,3.25.2,4.23.22,12.46.02,8.24-.01,9.21-.17,12.46-.14,3.01-.68,4.64-1.13,5.73-.6,1.44-1.31,2.47-2.47,3.55-1.16,1.08-2.26,1.75-3.8,2.31-1.16.42-2.92.93-6.14,1.07-3.49.15-4.53.19-13.37.2-8.83.02-9.88-.02-13.37-.16M46.74,14.36c0,2.04,1.79,3.7,3.98,3.69,2.19,0,3.97-1.66,3.96-3.71,0-2.04-1.79-3.7-3.98-3.69-2.19,0-3.97,1.67-3.96,3.71M16.1,30.88c.02,8.75,7.64,15.82,17.02,15.81,9.38-.02,16.97-7.12,16.96-15.87-.02-8.75-7.64-15.83-17.02-15.81-9.38.02-16.97,7.12-16.95,15.87M22.06,30.87c-.01-5.68,4.92-10.29,11.01-10.3,6.09-.01,11.04,4.58,11.05,10.26.01,5.68-4.92,10.29-11.01,10.3-6.09.01-11.04-4.58-11.05-10.26"/>
  </g>
</svg>